<svg width="502" height="291" viewBox="0 0 502 291" fill="none" xmlns="http://www.w3.org/2000/svg">
<path d="M7.32813 -4.76837e-06V70H15.8281V-4.76837e-06H7.32813ZM28.3281 70C35.1281 70 41.1615 68.5333 46.4281 65.6C51.6948 62.6667 55.8281 58.6 58.8281 53.4C61.8281 48.1333 63.3281 42 63.3281 35C63.3281 28 61.8281 21.9 58.8281 16.7C55.8281 11.4333 51.6948 7.33333 46.4281 4.4C41.1615 1.46666 35.1281 -4.76837e-06 28.3281 -4.76837e-06H12.0281V8.5H28.3281C32.2615 8.5 35.8615 9.13333 39.1281 10.4C42.3948 11.6 45.1948 13.3667 47.5281 15.7C49.8615 17.9667 51.6615 20.7333 52.9281 24C54.1948 27.2667 54.8281 30.9333 54.8281 35C54.8281 39.0667 54.1948 42.7333 52.9281 46C51.6615 49.2667 49.8615 52.0667 47.5281 54.4C45.1948 56.6667 42.3948 58.4333 39.1281 59.7C35.8615 60.9 32.2615 61.5 28.3281 61.5H12.0281V70H28.3281ZM70.7969 47C70.7969 51.6 71.8302 55.7333 73.8969 59.4C76.0302 63 78.8969 65.8333 82.4969 67.9C86.0969 69.9667 90.1302 71 94.5969 71C99.1302 71 103.164 69.9667 106.697 67.9C110.297 65.8333 113.13 63 115.197 59.4C117.33 55.7333 118.397 51.6 118.397 47C118.397 42.3333 117.33 38.2 115.197 34.6C113.13 31 110.297 28.1667 106.697 26.1C103.164 24.0333 99.1302 23 94.5969 23C90.1302 23 86.0969 24.0333 82.4969 26.1C78.8969 28.1667 76.0302 31 73.8969 34.6C71.8302 38.2 70.7969 42.3333 70.7969 47ZM78.8969 47C78.8969 43.8 79.5635 40.9667 80.8969 38.5C82.2969 35.9667 84.1635 34 86.4969 32.6C88.8969 31.2 91.5969 30.5 94.5969 30.5C97.5969 30.5 100.264 31.2 102.597 32.6C104.997 34 106.864 35.9667 108.197 38.5C109.597 40.9667 110.297 43.8 110.297 47C110.297 50.2 109.597 53.0333 108.197 55.5C106.864 57.9667 104.997 59.9333 102.597 61.4C100.264 62.8 97.5969 63.5 94.5969 63.5C91.5969 63.5 88.8969 62.8 86.4969 61.4C84.1635 59.9333 82.2969 57.9667 80.8969 55.5C79.5635 53.0333 78.8969 50.2 78.8969 47ZM158.887 42V70H166.887V41C166.887 35.4667 165.453 31.1 162.587 27.9C159.787 24.6333 155.953 23 151.087 23C148.087 23 145.42 23.6667 143.087 25C140.82 26.3333 138.92 28.4 137.387 31.2V24H129.387V70H137.387V42C137.387 39.7333 137.853 37.7333 138.787 36C139.787 34.2667 141.153 32.9333 142.887 32C144.687 31 146.753 30.5 149.087 30.5C152.287 30.5 154.72 31.4667 156.387 33.4C158.053 35.3333 158.887 38.2 158.887 42ZM185.526 55.8C185.526 54.1333 185.926 52.7 186.726 51.5C187.526 50.3 188.726 49.3667 190.326 48.7C191.992 48.0333 194.126 47.7 196.726 47.7C199.526 47.7 202.159 48.0667 204.626 48.8C207.092 49.4667 209.492 50.6 211.826 52.2V47.5C211.359 46.9 210.459 46.1333 209.126 45.2C207.792 44.2 205.992 43.3333 203.726 42.6C201.526 41.8 198.759 41.4 195.426 41.4C189.759 41.4 185.326 42.7667 182.126 45.5C178.992 48.1667 177.426 51.7333 177.426 56.2C177.426 59.3333 178.159 62 179.626 64.2C181.092 66.4 183.026 68.1 185.426 69.3C187.892 70.4333 190.526 71 193.326 71C195.859 71 198.392 70.5333 200.926 69.6C203.526 68.6667 205.692 67.2333 207.426 65.3C209.226 63.3667 210.126 60.9333 210.126 58L208.526 52C208.526 54.4 207.926 56.5333 206.726 58.4C205.592 60.2 204.026 61.6 202.026 62.6C200.092 63.6 197.892 64.1 195.426 64.1C193.492 64.1 191.759 63.8 190.226 63.2C188.759 62.5333 187.592 61.5667 186.726 60.3C185.926 59.0333 185.526 57.5333 185.526 55.8ZM184.326 34.6C185.059 34.0667 186.059 33.4333 187.326 32.7C188.592 31.9667 190.126 31.3333 191.926 30.8C193.792 30.2667 195.859 30 198.126 30C199.526 30 200.859 30.1333 202.126 30.4C203.392 30.6667 204.492 31.1 205.426 31.7C206.426 32.3 207.192 33.1333 207.726 34.2C208.259 35.2 208.526 36.5 208.526 38.1V70H216.526V37C216.526 34 215.759 31.4667 214.226 29.4C212.759 27.3333 210.659 25.7667 207.926 24.7C205.259 23.5667 202.126 23 198.526 23C194.259 23 190.592 23.6333 187.526 24.9C184.526 26.1667 182.159 27.4333 180.426 28.7L184.326 34.6ZM223.07 24V31.5H246.07V24H223.07ZM230.57 8V70H238.57V8H230.57ZM271.894 71C276.827 71 281.094 70.0333 284.694 68.1C288.36 66.1 291.394 63.1667 293.794 59.3L287.294 55.2C285.627 58 283.594 60.1 281.194 61.5C278.794 62.8333 276.027 63.5 272.894 63.5C269.76 63.5 267.094 62.8333 264.894 61.5C262.694 60.1667 261.027 58.2333 259.894 55.7C258.76 53.1667 258.194 50.1 258.194 46.5C258.26 42.9667 258.86 40 259.994 37.6C261.194 35.1333 262.86 33.2667 264.994 32C267.194 30.6667 269.827 30 272.894 30C275.494 30 277.76 30.5667 279.694 31.7C281.627 32.8333 283.127 34.4 284.194 36.4C285.327 38.4 285.894 40.7667 285.894 43.5C285.894 43.9667 285.794 44.5667 285.594 45.3C285.394 45.9667 285.194 46.4667 284.994 46.8L288.194 42.2H255.194V49H294.494C294.494 48.8667 294.494 48.5667 294.494 48.1C294.56 47.5667 294.594 47.0667 294.594 46.6C294.594 41.7333 293.727 37.5333 291.994 34C290.26 30.4667 287.76 27.7667 284.494 25.9C281.294 23.9667 277.427 23 272.894 23C268.36 23 264.36 24 260.894 26C257.494 28 254.827 30.8 252.894 34.4C251.027 38 250.094 42.2 250.094 47C250.094 51.7333 250.994 55.9 252.794 59.5C254.66 63.1 257.227 65.9333 260.494 68C263.827 70 267.627 71 271.894 71Z" fill="#EF8BAF"/>
<path d="M57.6449 165.8C57.6449 164.133 58.0449 162.7 58.8449 161.5C59.6449 160.3 60.8449 159.367 62.4449 158.7C64.1116 158.033 66.2449 157.7 68.8449 157.7C71.6449 157.7 74.2783 158.067 76.7449 158.8C79.2116 159.467 81.6116 160.6 83.9449 162.2V157.5C83.4783 156.9 82.5783 156.133 81.2449 155.2C79.9116 154.2 78.1116 153.333 75.8449 152.6C73.6449 151.8 70.8783 151.4 67.5449 151.4C61.8783 151.4 57.4449 152.767 54.2449 155.5C51.1116 158.167 49.5449 161.733 49.5449 166.2C49.5449 169.333 50.2783 172 51.7449 174.2C53.2116 176.4 55.1449 178.1 57.5449 179.3C60.0116 180.433 62.6449 181 65.4449 181C67.9783 181 70.5116 180.533 73.0449 179.6C75.6449 178.667 77.8116 177.233 79.5449 175.3C81.3449 173.367 82.2449 170.933 82.2449 168L80.6449 162C80.6449 164.4 80.0449 166.533 78.8449 168.4C77.7116 170.2 76.1449 171.6 74.1449 172.6C72.2116 173.6 70.0116 174.1 67.5449 174.1C65.6116 174.1 63.8783 173.8 62.3449 173.2C60.8783 172.533 59.7116 171.567 58.8449 170.3C58.0449 169.033 57.6449 167.533 57.6449 165.8ZM56.4449 144.6C57.1783 144.067 58.1783 143.433 59.4449 142.7C60.7116 141.967 62.2449 141.333 64.0449 140.8C65.9116 140.267 67.9783 140 70.2449 140C71.6449 140 72.9783 140.133 74.2449 140.4C75.5116 140.667 76.6116 141.1 77.5449 141.7C78.5449 142.3 79.3116 143.133 79.8449 144.2C80.3783 145.2 80.6449 146.5 80.6449 148.1V180H88.6449V147C88.6449 144 87.8783 141.467 86.3449 139.4C84.8783 137.333 82.7783 135.767 80.0449 134.7C77.3783 133.567 74.2449 133 70.6449 133C66.3783 133 62.7116 133.633 59.6449 134.9C56.6449 136.167 54.2783 137.433 52.5449 138.7L56.4449 144.6ZM131.689 152V180H139.689V151C139.689 145.467 138.256 141.1 135.389 137.9C132.589 134.633 128.756 133 123.889 133C120.889 133 118.223 133.667 115.889 135C113.623 136.333 111.723 138.4 110.189 141.2V134H102.189V180H110.189V152C110.189 149.733 110.656 147.733 111.589 146C112.589 144.267 113.956 142.933 115.689 142C117.489 141 119.556 140.5 121.889 140.5C125.089 140.5 127.523 141.467 129.189 143.4C130.856 145.333 131.689 148.2 131.689 152ZM189.229 102V180H197.229V102H189.229ZM150.729 157C150.729 161.933 151.762 166.2 153.829 169.8C155.895 173.4 158.662 176.167 162.129 178.1C165.595 180.033 169.395 181 173.529 181C177.395 181 180.762 180.033 183.629 178.1C186.495 176.167 188.729 173.4 190.329 169.8C191.995 166.2 192.829 161.933 192.829 157C192.829 152 191.995 147.733 190.329 144.2C188.729 140.6 186.495 137.833 183.629 135.9C180.762 133.967 177.395 133 173.529 133C169.395 133 165.595 133.967 162.129 135.9C158.662 137.833 155.895 140.6 153.829 144.2C151.762 147.733 150.729 152 150.729 157ZM158.829 157C158.829 153.467 159.529 150.467 160.929 148C162.395 145.533 164.329 143.667 166.729 142.4C169.129 141.133 171.729 140.5 174.529 140.5C176.862 140.5 179.162 141.133 181.429 142.4C183.695 143.667 185.562 145.533 187.029 148C188.495 150.467 189.229 153.467 189.229 157C189.229 160.533 188.495 163.533 187.029 166C185.562 168.467 183.695 170.333 181.429 171.6C179.162 172.867 176.862 173.5 174.529 173.5C171.729 173.5 169.129 172.867 166.729 171.6C164.329 170.333 162.395 168.467 160.929 166C159.529 163.533 158.829 160.533 158.829 157Z" fill="#09090B"/>
<path d="M365.039 42V70H373.039V41C373.039 35.4667 371.606 31.1 368.739 27.9C365.939 24.6333 362.106 23 357.239 23C354.239 23 351.572 23.6667 349.239 25C346.972 26.3333 345.072 28.4 343.539 31.2V24H335.539V70H343.539V42C343.539 39.7333 344.006 37.7333 344.939 36C345.939 34.2667 347.306 32.9333 349.039 32C350.839 31 352.906 30.5 355.239 30.5C358.439 30.5 360.872 31.4667 362.539 33.4C364.206 35.3333 365.039 38.2 365.039 42ZM384.078 47C384.078 51.6 385.111 55.7333 387.178 59.4C389.311 63 392.178 65.8333 395.778 67.9C399.378 69.9667 403.411 71 407.878 71C412.411 71 416.445 69.9667 419.978 67.9C423.578 65.8333 426.411 63 428.478 59.4C430.611 55.7333 431.678 51.6 431.678 47C431.678 42.3333 430.611 38.2 428.478 34.6C426.411 31 423.578 28.1667 419.978 26.1C416.445 24.0333 412.411 23 407.878 23C403.411 23 399.378 24.0333 395.778 26.1C392.178 28.1667 389.311 31 387.178 34.6C385.111 38.2 384.078 42.3333 384.078 47ZM392.178 47C392.178 43.8 392.845 40.9667 394.178 38.5C395.578 35.9667 397.445 34 399.778 32.6C402.178 31.2 404.878 30.5 407.878 30.5C410.878 30.5 413.545 31.2 415.878 32.6C418.278 34 420.145 35.9667 421.478 38.5C422.878 40.9667 423.578 43.8 423.578 47C423.578 50.2 422.878 53.0333 421.478 55.5C420.145 57.9667 418.278 59.9333 415.878 61.4C413.545 62.8 410.878 63.5 407.878 63.5C404.878 63.5 402.178 62.8 399.778 61.4C397.445 59.9333 395.578 57.9667 394.178 55.5C392.845 53.0333 392.178 50.2 392.178 47ZM434.203 24L454.203 73.5L467.303 40L481.203 73.5L501.203 24H492.203L480.603 54.1L467.203 20.5L454.703 53.9L443.203 24H434.203Z" fill="#0D0D0F"/>
<path d="M304.74 151C304.74 147.2 304.14 143.967 302.94 141.3C301.807 138.567 300.14 136.5 297.94 135.1C295.74 133.7 293.074 133 289.94 133C286.874 133 284.14 133.733 281.74 135.2C279.34 136.6 277.34 138.733 275.74 141.6C274.674 138.867 272.974 136.767 270.64 135.3C268.374 133.767 265.64 133 262.44 133C259.574 133 257.074 133.633 254.94 134.9C252.874 136.167 251.14 138.1 249.74 140.7V134H241.74V180H249.74V152C249.74 149.6 250.174 147.533 251.04 145.8C251.907 144.067 253.14 142.767 254.74 141.9C256.34 140.967 258.24 140.5 260.44 140.5C263.44 140.5 265.64 141.433 267.04 143.3C268.507 145.167 269.24 148.067 269.24 152V180H277.24V152C277.24 149.6 277.674 147.533 278.54 145.8C279.407 144.067 280.64 142.767 282.24 141.9C283.84 140.967 285.74 140.5 287.94 140.5C290.94 140.5 293.14 141.433 294.54 143.3C296.007 145.167 296.74 148.067 296.74 152V180H304.74V151ZM323.368 165.8C323.368 164.133 323.768 162.7 324.568 161.5C325.368 160.3 326.568 159.367 328.168 158.7C329.834 158.033 331.968 157.7 334.568 157.7C337.368 157.7 340.001 158.067 342.468 158.8C344.934 159.467 347.334 160.6 349.668 162.2V157.5C349.201 156.9 348.301 156.133 346.968 155.2C345.634 154.2 343.834 153.333 341.568 152.6C339.368 151.8 336.601 151.4 333.268 151.4C327.601 151.4 323.168 152.767 319.968 155.5C316.834 158.167 315.268 161.733 315.268 166.2C315.268 169.333 316.001 172 317.468 174.2C318.934 176.4 320.868 178.1 323.268 179.3C325.734 180.433 328.368 181 331.168 181C333.701 181 336.234 180.533 338.768 179.6C341.368 178.667 343.534 177.233 345.268 175.3C347.068 173.367 347.968 170.933 347.968 168L346.368 162C346.368 164.4 345.768 166.533 344.568 168.4C343.434 170.2 341.868 171.6 339.868 172.6C337.934 173.6 335.734 174.1 333.268 174.1C331.334 174.1 329.601 173.8 328.068 173.2C326.601 172.533 325.434 171.567 324.568 170.3C323.768 169.033 323.368 167.533 323.368 165.8ZM322.168 144.6C322.901 144.067 323.901 143.433 325.168 142.7C326.434 141.967 327.968 141.333 329.768 140.8C331.634 140.267 333.701 140 335.968 140C337.368 140 338.701 140.133 339.968 140.4C341.234 140.667 342.334 141.1 343.268 141.7C344.268 142.3 345.034 143.133 345.568 144.2C346.101 145.2 346.368 146.5 346.368 148.1V180H354.368V147C354.368 144 353.601 141.467 352.068 139.4C350.601 137.333 348.501 135.767 345.768 134.7C343.101 133.567 339.968 133 336.368 133C332.101 133 328.434 133.633 325.368 134.9C322.368 136.167 320.001 137.433 318.268 138.7L322.168 144.6ZM367.412 102V180H375.412V102H367.412ZM392.412 134L372.412 153L394.412 180H404.412L382.412 153L402.412 134H392.412ZM428.29 181C433.224 181 437.49 180.033 441.09 178.1C444.757 176.1 447.79 173.167 450.19 169.3L443.69 165.2C442.024 168 439.99 170.1 437.59 171.5C435.19 172.833 432.424 173.5 429.29 173.5C426.157 173.5 423.49 172.833 421.29 171.5C419.09 170.167 417.424 168.233 416.29 165.7C415.157 163.167 414.59 160.1 414.59 156.5C414.657 152.967 415.257 150 416.39 147.6C417.59 145.133 419.257 143.267 421.39 142C423.59 140.667 426.224 140 429.29 140C431.89 140 434.157 140.567 436.09 141.7C438.024 142.833 439.524 144.4 440.59 146.4C441.724 148.4 442.29 150.767 442.29 153.5C442.29 153.967 442.19 154.567 441.99 155.3C441.79 155.967 441.59 156.467 441.39 156.8L444.59 152.2H411.59V159H450.89C450.89 158.867 450.89 158.567 450.89 158.1C450.957 157.567 450.99 157.067 450.99 156.6C450.99 151.733 450.124 147.533 448.39 144C446.657 140.467 444.157 137.767 440.89 135.9C437.69 133.967 433.824 133 429.29 133C424.757 133 420.757 134 417.29 136C413.89 138 411.224 140.8 409.29 144.4C407.424 148 406.49 152.2 406.49 157C406.49 161.733 407.39 165.9 409.19 169.5C411.057 173.1 413.624 175.933 416.89 178C420.224 180 424.024 181 428.29 181ZM8.67031 275.8C8.67031 274.133 9.07031 272.7 9.87031 271.5C10.6703 270.3 11.8703 269.367 13.4703 268.7C15.137 268.033 17.2703 267.7 19.8703 267.7C22.6703 267.7 25.3036 268.067 27.7703 268.8C30.237 269.467 32.637 270.6 34.9703 272.2V267.5C34.5036 266.9 33.6036 266.133 32.2703 265.2C30.937 264.2 29.137 263.333 26.8703 262.6C24.6703 261.8 21.9036 261.4 18.5703 261.4C12.9036 261.4 8.47031 262.767 5.27031 265.5C2.13698 268.167 0.570313 271.733 0.570313 276.2C0.570313 279.333 1.30365 282 2.77031 284.2C4.23698 286.4 6.17031 288.1 8.57031 289.3C11.037 290.433 13.6703 291 16.4703 291C19.0036 291 21.537 290.533 24.0703 289.6C26.6703 288.667 28.837 287.233 30.5703 285.3C32.3703 283.367 33.2703 280.933 33.2703 278L31.6703 272C31.6703 274.4 31.0703 276.533 29.8703 278.4C28.737 280.2 27.1703 281.6 25.1703 282.6C23.237 283.6 21.037 284.1 18.5703 284.1C16.637 284.1 14.9036 283.8 13.3703 283.2C11.9036 282.533 10.737 281.567 9.87031 280.3C9.07031 279.033 8.67031 277.533 8.67031 275.8ZM7.47031 254.6C8.20365 254.067 9.20365 253.433 10.4703 252.7C11.737 251.967 13.2703 251.333 15.0703 250.8C16.937 250.267 19.0036 250 21.2703 250C22.6703 250 24.0036 250.133 25.2703 250.4C26.537 250.667 27.637 251.1 28.5703 251.7C29.5703 252.3 30.337 253.133 30.8703 254.2C31.4036 255.2 31.6703 256.5 31.6703 258.1V290H39.6703V257C39.6703 254 38.9036 251.467 37.3703 249.4C35.9036 247.333 33.8036 245.767 31.0703 244.7C28.4036 243.567 25.2703 243 21.6703 243C17.4036 243 13.737 243.633 10.6703 244.9C7.67031 246.167 5.30365 247.433 3.57031 248.7L7.47031 254.6ZM117.695 212V290H125.695V212H117.695ZM79.1953 267C79.1953 271.933 80.2286 276.2 82.2953 279.8C84.362 283.4 87.1286 286.167 90.5953 288.1C94.062 290.033 97.862 291 101.995 291C105.862 291 109.229 290.033 112.095 288.1C114.962 286.167 117.195 283.4 118.795 279.8C120.462 276.2 121.295 271.933 121.295 267C121.295 262 120.462 257.733 118.795 254.2C117.195 250.6 114.962 247.833 112.095 245.9C109.229 243.967 105.862 243 101.995 243C97.862 243 94.062 243.967 90.5953 245.9C87.1286 247.833 84.362 250.6 82.2953 254.2C80.2286 257.733 79.1953 262 79.1953 267ZM87.2953 267C87.2953 263.467 87.9953 260.467 89.3953 258C90.862 255.533 92.7953 253.667 95.1953 252.4C97.5953 251.133 100.195 250.5 102.995 250.5C105.329 250.5 107.629 251.133 109.895 252.4C112.162 253.667 114.029 255.533 115.495 258C116.962 260.467 117.695 263.467 117.695 267C117.695 270.533 116.962 273.533 115.495 276C114.029 278.467 112.162 280.333 109.895 281.6C107.629 282.867 105.329 283.5 102.995 283.5C100.195 283.5 97.5953 282.867 95.1953 281.6C92.7953 280.333 90.862 278.467 89.3953 276C87.9953 273.533 87.2953 270.533 87.2953 267ZM140.227 225C140.227 226.467 140.76 227.767 141.827 228.9C142.96 229.967 144.26 230.5 145.727 230.5C147.26 230.5 148.56 229.967 149.627 228.9C150.693 227.767 151.227 226.467 151.227 225C151.227 223.467 150.693 222.167 149.627 221.1C148.56 220.033 147.26 219.5 145.727 219.5C144.26 219.5 142.96 220.033 141.827 221.1C140.76 222.167 140.227 223.467 140.227 225ZM141.727 244V290H149.727V244H141.727ZM162.703 244V251.5H185.703V244H162.703ZM184.903 221.6L189.303 215C188.836 214.333 188.17 213.7 187.303 213.1C186.503 212.5 185.536 212 184.403 211.6C183.27 211.2 181.97 211 180.503 211C177.703 211 175.303 211.6 173.303 212.8C171.37 213.933 169.87 215.667 168.803 218C167.736 220.333 167.203 223.333 167.203 227V290H175.203V228C175.203 225.8 175.403 224.033 175.803 222.7C176.203 221.367 176.736 220.433 177.403 219.9C178.136 219.3 179.003 219 180.003 219C180.803 219 181.636 219.167 182.503 219.5C183.436 219.767 184.236 220.467 184.903 221.6ZM191.316 244V251.5H214.316V244H191.316ZM213.516 221.6L217.916 215C217.45 214.333 216.783 213.7 215.916 213.1C215.116 212.5 214.15 212 213.016 211.6C211.883 211.2 210.583 211 209.116 211C206.316 211 203.916 211.6 201.916 212.8C199.983 213.933 198.483 215.667 197.416 218C196.35 220.333 195.816 223.333 195.816 227V290H203.816V228C203.816 225.8 204.016 224.033 204.416 222.7C204.816 221.367 205.35 220.433 206.016 219.9C206.75 219.3 207.616 219 208.616 219C209.416 219 210.25 219.167 211.116 219.5C212.05 219.767 212.85 220.467 213.516 221.6ZM241.23 291C246.163 291 250.43 290.033 254.03 288.1C257.696 286.1 260.73 283.167 263.13 279.3L256.63 275.2C254.963 278 252.93 280.1 250.53 281.5C248.13 282.833 245.363 283.5 242.23 283.5C239.096 283.5 236.43 282.833 234.23 281.5C232.03 280.167 230.363 278.233 229.23 275.7C228.096 273.167 227.53 270.1 227.53 266.5C227.596 262.967 228.196 260 229.33 257.6C230.53 255.133 232.196 253.267 234.33 252C236.53 250.667 239.163 250 242.23 250C244.83 250 247.096 250.567 249.03 251.7C250.963 252.833 252.463 254.4 253.53 256.4C254.663 258.4 255.23 260.767 255.23 263.5C255.23 263.967 255.13 264.567 254.93 265.3C254.73 265.967 254.53 266.467 254.33 266.8L257.53 262.2H224.53V269H263.83C263.83 268.867 263.83 268.567 263.83 268.1C263.896 267.567 263.93 267.067 263.93 266.6C263.93 261.733 263.063 257.533 261.33 254C259.596 250.467 257.096 247.767 253.83 245.9C250.63 243.967 246.763 243 242.23 243C237.696 243 233.696 244 230.23 246C226.83 248 224.163 250.8 222.23 254.4C220.363 258 219.43 262.2 219.43 267C219.43 271.733 220.33 275.9 222.13 279.5C223.996 283.1 226.563 285.933 229.83 288C233.163 290 236.963 291 241.23 291ZM282.895 244H274.895V290H282.895V244ZM296.795 252.8L301.195 246.2C299.995 244.933 298.661 244.1 297.195 243.7C295.795 243.233 294.261 243 292.595 243C290.461 243 288.361 243.833 286.295 245.5C284.228 247.167 282.528 249.433 281.195 252.3C279.928 255.1 279.295 258.333 279.295 262H282.895C282.895 259.8 283.095 257.833 283.495 256.1C283.961 254.367 284.761 253 285.895 252C287.028 251 288.595 250.5 290.595 250.5C291.928 250.5 293.028 250.7 293.895 251.1C294.761 251.433 295.728 252 296.795 252.8ZM325.507 291C330.44 291 334.707 290.033 338.307 288.1C341.974 286.1 345.007 283.167 347.407 279.3L340.907 275.2C339.24 278 337.207 280.1 334.807 281.5C332.407 282.833 329.64 283.5 326.507 283.5C323.374 283.5 320.707 282.833 318.507 281.5C316.307 280.167 314.64 278.233 313.507 275.7C312.374 273.167 311.807 270.1 311.807 266.5C311.874 262.967 312.474 260 313.607 257.6C314.807 255.133 316.474 253.267 318.607 252C320.807 250.667 323.44 250 326.507 250C329.107 250 331.374 250.567 333.307 251.7C335.24 252.833 336.74 254.4 337.807 256.4C338.94 258.4 339.507 260.767 339.507 263.5C339.507 263.967 339.407 264.567 339.207 265.3C339.007 265.967 338.807 266.467 338.607 266.8L341.807 262.2H308.807V269H348.107C348.107 268.867 348.107 268.567 348.107 268.1C348.174 267.567 348.207 267.067 348.207 266.6C348.207 261.733 347.34 257.533 345.607 254C343.874 250.467 341.374 247.767 338.107 245.9C334.907 243.967 331.04 243 326.507 243C321.974 243 317.974 244 314.507 246C311.107 248 308.44 250.8 306.507 254.4C304.64 258 303.707 262.2 303.707 267C303.707 271.733 304.607 275.9 306.407 279.5C308.274 283.1 310.84 285.933 314.107 288C317.44 290 321.24 291 325.507 291ZM388.672 262V290H396.672V261C396.672 255.467 395.239 251.1 392.372 247.9C389.572 244.633 385.739 243 380.872 243C377.872 243 375.205 243.667 372.872 245C370.605 246.333 368.705 248.4 367.172 251.2V244H359.172V290H367.172V262C367.172 259.733 367.639 257.733 368.572 256C369.572 254.267 370.939 252.933 372.672 252C374.472 251 376.539 250.5 378.872 250.5C382.072 250.5 384.505 251.467 386.172 253.4C387.839 255.333 388.672 258.2 388.672 262ZM415.311 267C415.311 263.8 415.978 260.967 417.311 258.5C418.711 255.967 420.578 254 422.911 252.6C425.311 251.2 428.011 250.5 431.011 250.5C433.478 250.5 435.778 250.9 437.911 251.7C440.111 252.433 442.011 253.433 443.611 254.7C445.211 255.967 446.344 257.367 447.011 258.9V248.9C445.411 247.033 443.111 245.6 440.111 244.6C437.178 243.533 434.144 243 431.011 243C426.544 243 422.511 244.033 418.911 246.1C415.311 248.167 412.444 251 410.311 254.6C408.244 258.2 407.211 262.333 407.211 267C407.211 271.6 408.244 275.733 410.311 279.4C412.444 283 415.311 285.833 418.911 287.9C422.511 289.967 426.544 291 431.011 291C434.144 291 437.178 290.5 440.111 289.5C443.111 288.433 445.411 286.967 447.011 285.1V275.1C446.344 276.567 445.211 277.967 443.611 279.3C442.011 280.567 440.111 281.6 437.911 282.4C435.778 283.133 433.478 283.5 431.011 283.5C428.011 283.5 425.311 282.8 422.911 281.4C420.578 279.933 418.711 277.967 417.311 275.5C415.978 273.033 415.311 270.2 415.311 267ZM477.265 291C482.198 291 486.465 290.033 490.065 288.1C493.732 286.1 496.765 283.167 499.165 279.3L492.665 275.2C490.998 278 488.965 280.1 486.565 281.5C484.165 282.833 481.398 283.5 478.265 283.5C475.132 283.5 472.465 282.833 470.265 281.5C468.065 280.167 466.398 278.233 465.265 275.7C464.132 273.167 463.565 270.1 463.565 266.5C463.632 262.967 464.232 260 465.365 257.6C466.565 255.133 468.232 253.267 470.365 252C472.565 250.667 475.198 250 478.265 250C480.865 250 483.132 250.567 485.065 251.7C486.998 252.833 488.498 254.4 489.565 256.4C490.698 258.4 491.265 260.767 491.265 263.5C491.265 263.967 491.165 264.567 490.965 265.3C490.765 265.967 490.565 266.467 490.365 266.8L493.565 262.2H460.565V269H499.865C499.865 268.867 499.865 268.567 499.865 268.1C499.932 267.567 499.965 267.067 499.965 266.6C499.965 261.733 499.098 257.533 497.365 254C495.632 250.467 493.132 247.767 489.865 245.9C486.665 243.967 482.798 243 478.265 243C473.732 243 469.732 244 466.265 246C462.865 248 460.198 250.8 458.265 254.4C456.398 258 455.465 262.2 455.465 267C455.465 271.733 456.365 275.9 458.165 279.5C460.032 283.1 462.598 285.933 465.865 288C469.198 290 472.998 291 477.265 291Z" fill="#6383F3"/>
</svg>
