<svg width="733" height="330" viewBox="0 0 733 330" fill="none" xmlns="http://www.w3.org/2000/svg">
<path d="M123.328 20V90H131.828V20H123.328ZM144.328 90C151.128 90 157.161 88.5333 162.428 85.6C167.695 82.6667 171.828 78.6 174.828 73.4C177.828 68.1333 179.328 62 179.328 55C179.328 48 177.828 41.9 174.828 36.7C171.828 31.4333 167.695 27.3333 162.428 24.4C157.161 21.4667 151.128 20 144.328 20H128.028V28.5H144.328C148.261 28.5 151.861 29.1333 155.128 30.4C158.395 31.6 161.195 33.3667 163.528 35.7C165.861 37.9667 167.661 40.7333 168.928 44C170.195 47.2667 170.828 50.9333 170.828 55C170.828 59.0667 170.195 62.7333 168.928 66C167.661 69.2667 165.861 72.0667 163.528 74.4C161.195 76.6667 158.395 78.4333 155.128 79.7C151.861 80.9 148.261 81.5 144.328 81.5H128.028V90H144.328ZM186.797 67C186.797 71.6 187.83 75.7333 189.897 79.4C192.03 83 194.897 85.8333 198.497 87.9C202.097 89.9667 206.13 91 210.597 91C215.13 91 219.164 89.9667 222.697 87.9C226.297 85.8333 229.13 83 231.197 79.4C233.33 75.7333 234.397 71.6 234.397 67C234.397 62.3333 233.33 58.2 231.197 54.6C229.13 51 226.297 48.1667 222.697 46.1C219.164 44.0333 215.13 43 210.597 43C206.13 43 202.097 44.0333 198.497 46.1C194.897 48.1667 192.03 51 189.897 54.6C187.83 58.2 186.797 62.3333 186.797 67ZM194.897 67C194.897 63.8 195.564 60.9667 196.897 58.5C198.297 55.9667 200.164 54 202.497 52.6C204.897 51.2 207.597 50.5 210.597 50.5C213.597 50.5 216.264 51.2 218.597 52.6C220.997 54 222.864 55.9667 224.197 58.5C225.597 60.9667 226.297 63.8 226.297 67C226.297 70.2 225.597 73.0333 224.197 75.5C222.864 77.9667 220.997 79.9333 218.597 81.4C216.264 82.8 213.597 83.5 210.597 83.5C207.597 83.5 204.897 82.8 202.497 81.4C200.164 79.9333 198.297 77.9667 196.897 75.5C195.564 73.0333 194.897 70.2 194.897 67ZM274.887 62V90H282.887V61C282.887 55.4667 281.453 51.1 278.587 47.9C275.787 44.6333 271.953 43 267.087 43C264.087 43 261.42 43.6667 259.087 45C256.82 46.3333 254.92 48.4 253.387 51.2V44H245.387V90H253.387V62C253.387 59.7333 253.853 57.7333 254.787 56C255.787 54.2667 257.153 52.9333 258.887 52C260.687 51 262.753 50.5 265.087 50.5C268.287 50.5 270.72 51.4667 272.387 53.4C274.053 55.3333 274.887 58.2 274.887 62ZM301.526 75.8C301.526 74.1333 301.926 72.7 302.726 71.5C303.526 70.3 304.726 69.3667 306.326 68.7C307.992 68.0333 310.126 67.7 312.726 67.7C315.526 67.7 318.159 68.0667 320.626 68.8C323.092 69.4667 325.492 70.6 327.826 72.2V67.5C327.359 66.9 326.459 66.1333 325.126 65.2C323.792 64.2 321.992 63.3333 319.726 62.6C317.526 61.8 314.759 61.4 311.426 61.4C305.759 61.4 301.326 62.7667 298.126 65.5C294.992 68.1667 293.426 71.7333 293.426 76.2C293.426 79.3333 294.159 82 295.626 84.2C297.092 86.4 299.026 88.1 301.426 89.3C303.892 90.4333 306.526 91 309.326 91C311.859 91 314.392 90.5333 316.926 89.6C319.526 88.6667 321.692 87.2333 323.426 85.3C325.226 83.3667 326.126 80.9333 326.126 78L324.526 72C324.526 74.4 323.926 76.5333 322.726 78.4C321.592 80.2 320.026 81.6 318.026 82.6C316.092 83.6 313.892 84.1 311.426 84.1C309.492 84.1 307.759 83.8 306.226 83.2C304.759 82.5333 303.592 81.5667 302.726 80.3C301.926 79.0333 301.526 77.5333 301.526 75.8ZM300.326 54.6C301.059 54.0667 302.059 53.4333 303.326 52.7C304.592 51.9667 306.126 51.3333 307.926 50.8C309.792 50.2667 311.859 50 314.126 50C315.526 50 316.859 50.1333 318.126 50.4C319.392 50.6667 320.492 51.1 321.426 51.7C322.426 52.3 323.192 53.1333 323.726 54.2C324.259 55.2 324.526 56.5 324.526 58.1V90H332.526V57C332.526 54 331.759 51.4667 330.226 49.4C328.759 47.3333 326.659 45.7667 323.926 44.7C321.259 43.5667 318.126 43 314.526 43C310.259 43 306.592 43.6333 303.526 44.9C300.526 46.1667 298.159 47.4333 296.426 48.7L300.326 54.6ZM339.07 44V51.5H362.07V44H339.07ZM346.57 28V90H354.57V28H346.57ZM387.894 91C392.827 91 397.094 90.0333 400.694 88.1C404.36 86.1 407.394 83.1667 409.794 79.3L403.294 75.2C401.627 78 399.594 80.1 397.194 81.5C394.794 82.8333 392.027 83.5 388.894 83.5C385.76 83.5 383.094 82.8333 380.894 81.5C378.694 80.1667 377.027 78.2333 375.894 75.7C374.76 73.1667 374.194 70.1 374.194 66.5C374.26 62.9667 374.86 60 375.994 57.6C377.194 55.1333 378.86 53.2667 380.994 52C383.194 50.6667 385.827 50 388.894 50C391.494 50 393.76 50.5667 395.694 51.7C397.627 52.8333 399.127 54.4 400.194 56.4C401.327 58.4 401.894 60.7667 401.894 63.5C401.894 63.9667 401.794 64.5667 401.594 65.3C401.394 65.9667 401.194 66.4667 400.994 66.8L404.194 62.2H371.194V69H410.494C410.494 68.8667 410.494 68.5667 410.494 68.1C410.56 67.5667 410.594 67.0667 410.594 66.6C410.594 61.7333 409.727 57.5333 407.994 54C406.26 50.4667 403.76 47.7667 400.494 45.9C397.294 43.9667 393.427 43 388.894 43C384.36 43 380.36 44 376.894 46C373.494 48 370.827 50.8 368.894 54.4C367.027 58 366.094 62.2 366.094 67C366.094 71.7333 366.994 75.9 368.794 79.5C370.66 83.1 373.227 85.9333 376.494 88C379.827 90 383.627 91 387.894 91Z" fill="#EF8BAF"/>
<path d="M481.039 62V90H489.039V61C489.039 55.4667 487.606 51.1 484.739 47.9C481.939 44.6333 478.106 43 473.239 43C470.239 43 467.572 43.6667 465.239 45C462.972 46.3333 461.072 48.4 459.539 51.2V44H451.539V90H459.539V62C459.539 59.7333 460.006 57.7333 460.939 56C461.939 54.2667 463.306 52.9333 465.039 52C466.839 51 468.906 50.5 471.239 50.5C474.439 50.5 476.872 51.4667 478.539 53.4C480.206 55.3333 481.039 58.2 481.039 62ZM500.078 67C500.078 71.6 501.111 75.7333 503.178 79.4C505.311 83 508.178 85.8333 511.778 87.9C515.378 89.9667 519.411 91 523.878 91C528.411 91 532.445 89.9667 535.978 87.9C539.578 85.8333 542.411 83 544.478 79.4C546.611 75.7333 547.678 71.6 547.678 67C547.678 62.3333 546.611 58.2 544.478 54.6C542.411 51 539.578 48.1667 535.978 46.1C532.445 44.0333 528.411 43 523.878 43C519.411 43 515.378 44.0333 511.778 46.1C508.178 48.1667 505.311 51 503.178 54.6C501.111 58.2 500.078 62.3333 500.078 67ZM508.178 67C508.178 63.8 508.845 60.9667 510.178 58.5C511.578 55.9667 513.445 54 515.778 52.6C518.178 51.2 520.878 50.5 523.878 50.5C526.878 50.5 529.545 51.2 531.878 52.6C534.278 54 536.145 55.9667 537.478 58.5C538.878 60.9667 539.578 63.8 539.578 67C539.578 70.2 538.878 73.0333 537.478 75.5C536.145 77.9667 534.278 79.9333 531.878 81.4C529.545 82.8 526.878 83.5 523.878 83.5C520.878 83.5 518.178 82.8 515.778 81.4C513.445 79.9333 511.578 77.9667 510.178 75.5C508.845 73.0333 508.178 70.2 508.178 67ZM550.203 44L570.203 93.5L583.303 60L597.203 93.5L617.203 44H608.203L596.603 74.1L583.203 40.5L570.703 73.9L559.203 44H550.203ZM173.645 185.8C173.645 184.133 174.045 182.7 174.845 181.5C175.645 180.3 176.845 179.367 178.445 178.7C180.112 178.033 182.245 177.7 184.845 177.7C187.645 177.7 190.278 178.067 192.745 178.8C195.212 179.467 197.612 180.6 199.945 182.2V177.5C199.478 176.9 198.578 176.133 197.245 175.2C195.912 174.2 194.112 173.333 191.845 172.6C189.645 171.8 186.878 171.4 183.545 171.4C177.878 171.4 173.445 172.767 170.245 175.5C167.112 178.167 165.545 181.733 165.545 186.2C165.545 189.333 166.278 192 167.745 194.2C169.212 196.4 171.145 198.1 173.545 199.3C176.012 200.433 178.645 201 181.445 201C183.978 201 186.512 200.533 189.045 199.6C191.645 198.667 193.812 197.233 195.545 195.3C197.345 193.367 198.245 190.933 198.245 188L196.645 182C196.645 184.4 196.045 186.533 194.845 188.4C193.712 190.2 192.145 191.6 190.145 192.6C188.212 193.6 186.012 194.1 183.545 194.1C181.612 194.1 179.878 193.8 178.345 193.2C176.878 192.533 175.712 191.567 174.845 190.3C174.045 189.033 173.645 187.533 173.645 185.8ZM172.445 164.6C173.178 164.067 174.178 163.433 175.445 162.7C176.712 161.967 178.245 161.333 180.045 160.8C181.912 160.267 183.978 160 186.245 160C187.645 160 188.978 160.133 190.245 160.4C191.512 160.667 192.612 161.1 193.545 161.7C194.545 162.3 195.312 163.133 195.845 164.2C196.378 165.2 196.645 166.5 196.645 168.1V200H204.645V167C204.645 164 203.878 161.467 202.345 159.4C200.878 157.333 198.778 155.767 196.045 154.7C193.378 153.567 190.245 153 186.645 153C182.378 153 178.712 153.633 175.645 154.9C172.645 156.167 170.278 157.433 168.545 158.7L172.445 164.6ZM247.689 172V200H255.689V171C255.689 165.467 254.256 161.1 251.389 157.9C248.589 154.633 244.756 153 239.889 153C236.889 153 234.223 153.667 231.889 155C229.623 156.333 227.723 158.4 226.189 161.2V154H218.189V200H226.189V172C226.189 169.733 226.656 167.733 227.589 166C228.589 164.267 229.956 162.933 231.689 162C233.489 161 235.556 160.5 237.889 160.5C241.089 160.5 243.523 161.467 245.189 163.4C246.856 165.333 247.689 168.2 247.689 172ZM305.229 122V200H313.229V122H305.229ZM266.729 177C266.729 181.933 267.762 186.2 269.829 189.8C271.895 193.4 274.662 196.167 278.129 198.1C281.595 200.033 285.395 201 289.529 201C293.395 201 296.762 200.033 299.629 198.1C302.495 196.167 304.729 193.4 306.329 189.8C307.995 186.2 308.829 181.933 308.829 177C308.829 172 307.995 167.733 306.329 164.2C304.729 160.6 302.495 157.833 299.629 155.9C296.762 153.967 293.395 153 289.529 153C285.395 153 281.595 153.967 278.129 155.9C274.662 157.833 271.895 160.6 269.829 164.2C267.762 167.733 266.729 172 266.729 177ZM274.829 177C274.829 173.467 275.529 170.467 276.929 168C278.395 165.533 280.329 163.667 282.729 162.4C285.129 161.133 287.729 160.5 290.529 160.5C292.862 160.5 295.162 161.133 297.429 162.4C299.695 163.667 301.562 165.533 303.029 168C304.495 170.467 305.229 173.467 305.229 177C305.229 180.533 304.495 183.533 303.029 186C301.562 188.467 299.695 190.333 297.429 191.6C295.162 192.867 292.862 193.5 290.529 193.5C287.729 193.5 285.129 192.867 282.729 191.6C280.329 190.333 278.395 188.467 276.929 186C275.529 183.533 274.829 180.533 274.829 177Z" fill="#2B2E57"/>
<path d="M420.74 171C420.74 167.2 420.14 163.967 418.94 161.3C417.807 158.567 416.14 156.5 413.94 155.1C411.74 153.7 409.074 153 405.94 153C402.874 153 400.14 153.733 397.74 155.2C395.34 156.6 393.34 158.733 391.74 161.6C390.674 158.867 388.974 156.767 386.64 155.3C384.374 153.767 381.64 153 378.44 153C375.574 153 373.074 153.633 370.94 154.9C368.874 156.167 367.14 158.1 365.74 160.7V154H357.74V200H365.74V172C365.74 169.6 366.174 167.533 367.04 165.8C367.907 164.067 369.14 162.767 370.74 161.9C372.34 160.967 374.24 160.5 376.44 160.5C379.44 160.5 381.64 161.433 383.04 163.3C384.507 165.167 385.24 168.067 385.24 172V200H393.24V172C393.24 169.6 393.674 167.533 394.54 165.8C395.407 164.067 396.64 162.767 398.24 161.9C399.84 160.967 401.74 160.5 403.94 160.5C406.94 160.5 409.14 161.433 410.54 163.3C412.007 165.167 412.74 168.067 412.74 172V200H420.74V171ZM439.368 185.8C439.368 184.133 439.768 182.7 440.568 181.5C441.368 180.3 442.568 179.367 444.168 178.7C445.834 178.033 447.968 177.7 450.568 177.7C453.368 177.7 456.001 178.067 458.468 178.8C460.934 179.467 463.334 180.6 465.668 182.2V177.5C465.201 176.9 464.301 176.133 462.968 175.2C461.634 174.2 459.834 173.333 457.568 172.6C455.368 171.8 452.601 171.4 449.268 171.4C443.601 171.4 439.168 172.767 435.968 175.5C432.834 178.167 431.268 181.733 431.268 186.2C431.268 189.333 432.001 192 433.468 194.2C434.934 196.4 436.868 198.1 439.268 199.3C441.734 200.433 444.368 201 447.168 201C449.701 201 452.234 200.533 454.768 199.6C457.368 198.667 459.534 197.233 461.268 195.3C463.068 193.367 463.968 190.933 463.968 188L462.368 182C462.368 184.4 461.768 186.533 460.568 188.4C459.434 190.2 457.868 191.6 455.868 192.6C453.934 193.6 451.734 194.1 449.268 194.1C447.334 194.1 445.601 193.8 444.068 193.2C442.601 192.533 441.434 191.567 440.568 190.3C439.768 189.033 439.368 187.533 439.368 185.8ZM438.168 164.6C438.901 164.067 439.901 163.433 441.168 162.7C442.434 161.967 443.968 161.333 445.768 160.8C447.634 160.267 449.701 160 451.968 160C453.368 160 454.701 160.133 455.968 160.4C457.234 160.667 458.334 161.1 459.268 161.7C460.268 162.3 461.034 163.133 461.568 164.2C462.101 165.2 462.368 166.5 462.368 168.1V200H470.368V167C470.368 164 469.601 161.467 468.068 159.4C466.601 157.333 464.501 155.767 461.768 154.7C459.101 153.567 455.968 153 452.368 153C448.101 153 444.434 153.633 441.368 154.9C438.368 156.167 436.001 157.433 434.268 158.7L438.168 164.6ZM483.412 122V200H491.412V122H483.412ZM508.412 154L488.412 173L510.412 200H520.412L498.412 173L518.412 154H508.412ZM544.29 201C549.224 201 553.49 200.033 557.09 198.1C560.757 196.1 563.79 193.167 566.19 189.3L559.69 185.2C558.024 188 555.99 190.1 553.59 191.5C551.19 192.833 548.424 193.5 545.29 193.5C542.157 193.5 539.49 192.833 537.29 191.5C535.09 190.167 533.424 188.233 532.29 185.7C531.157 183.167 530.59 180.1 530.59 176.5C530.657 172.967 531.257 170 532.39 167.6C533.59 165.133 535.257 163.267 537.39 162C539.59 160.667 542.224 160 545.29 160C547.89 160 550.157 160.567 552.09 161.7C554.024 162.833 555.524 164.4 556.59 166.4C557.724 168.4 558.29 170.767 558.29 173.5C558.29 173.967 558.19 174.567 557.99 175.3C557.79 175.967 557.59 176.467 557.39 176.8L560.59 172.2H527.59V179H566.89C566.89 178.867 566.89 178.567 566.89 178.1C566.957 177.567 566.99 177.067 566.99 176.6C566.99 171.733 566.124 167.533 564.39 164C562.657 160.467 560.157 157.767 556.89 155.9C553.69 153.967 549.824 153 545.29 153C540.757 153 536.757 154 533.29 156C529.89 158 527.224 160.8 525.29 164.4C523.424 168 522.49 172.2 522.49 177C522.49 181.733 523.39 185.9 525.19 189.5C527.057 193.1 529.624 195.933 532.89 198C536.224 200 540.024 201 544.29 201ZM124.67 295.8C124.67 294.133 125.07 292.7 125.87 291.5C126.67 290.3 127.87 289.367 129.47 288.7C131.137 288.033 133.27 287.7 135.87 287.7C138.67 287.7 141.304 288.067 143.77 288.8C146.237 289.467 148.637 290.6 150.97 292.2V287.5C150.504 286.9 149.604 286.133 148.27 285.2C146.937 284.2 145.137 283.333 142.87 282.6C140.67 281.8 137.904 281.4 134.57 281.4C128.904 281.4 124.47 282.767 121.27 285.5C118.137 288.167 116.57 291.733 116.57 296.2C116.57 299.333 117.304 302 118.77 304.2C120.237 306.4 122.17 308.1 124.57 309.3C127.037 310.433 129.67 311 132.47 311C135.004 311 137.537 310.533 140.07 309.6C142.67 308.667 144.837 307.233 146.57 305.3C148.37 303.367 149.27 300.933 149.27 298L147.67 292C147.67 294.4 147.07 296.533 145.87 298.4C144.737 300.2 143.17 301.6 141.17 302.6C139.237 303.6 137.037 304.1 134.57 304.1C132.637 304.1 130.904 303.8 129.37 303.2C127.904 302.533 126.737 301.567 125.87 300.3C125.07 299.033 124.67 297.533 124.67 295.8ZM123.47 274.6C124.204 274.067 125.204 273.433 126.47 272.7C127.737 271.967 129.27 271.333 131.07 270.8C132.937 270.267 135.004 270 137.27 270C138.67 270 140.004 270.133 141.27 270.4C142.537 270.667 143.637 271.1 144.57 271.7C145.57 272.3 146.337 273.133 146.87 274.2C147.404 275.2 147.67 276.5 147.67 278.1V310H155.67V277C155.67 274 154.904 271.467 153.37 269.4C151.904 267.333 149.804 265.767 147.07 264.7C144.404 263.567 141.27 263 137.67 263C133.404 263 129.737 263.633 126.67 264.9C123.67 266.167 121.304 267.433 119.57 268.7L123.47 274.6ZM233.695 232V310H241.695V232H233.695ZM195.195 287C195.195 291.933 196.229 296.2 198.295 299.8C200.362 303.4 203.129 306.167 206.595 308.1C210.062 310.033 213.862 311 217.995 311C221.862 311 225.229 310.033 228.095 308.1C230.962 306.167 233.195 303.4 234.795 299.8C236.462 296.2 237.295 291.933 237.295 287C237.295 282 236.462 277.733 234.795 274.2C233.195 270.6 230.962 267.833 228.095 265.9C225.229 263.967 221.862 263 217.995 263C213.862 263 210.062 263.967 206.595 265.9C203.129 267.833 200.362 270.6 198.295 274.2C196.229 277.733 195.195 282 195.195 287ZM203.295 287C203.295 283.467 203.995 280.467 205.395 278C206.862 275.533 208.795 273.667 211.195 272.4C213.595 271.133 216.195 270.5 218.995 270.5C221.329 270.5 223.629 271.133 225.895 272.4C228.162 273.667 230.029 275.533 231.495 278C232.962 280.467 233.695 283.467 233.695 287C233.695 290.533 232.962 293.533 231.495 296C230.029 298.467 228.162 300.333 225.895 301.6C223.629 302.867 221.329 303.5 218.995 303.5C216.195 303.5 213.595 302.867 211.195 301.6C208.795 300.333 206.862 298.467 205.395 296C203.995 293.533 203.295 290.533 203.295 287ZM256.227 245C256.227 246.467 256.76 247.767 257.827 248.9C258.96 249.967 260.26 250.5 261.727 250.5C263.26 250.5 264.56 249.967 265.627 248.9C266.693 247.767 267.227 246.467 267.227 245C267.227 243.467 266.693 242.167 265.627 241.1C264.56 240.033 263.26 239.5 261.727 239.5C260.26 239.5 258.96 240.033 257.827 241.1C256.76 242.167 256.227 243.467 256.227 245ZM257.727 264V310H265.727V264H257.727ZM278.703 264V271.5H301.703V264H278.703ZM300.903 241.6L305.303 235C304.836 234.333 304.17 233.7 303.303 233.1C302.503 232.5 301.536 232 300.403 231.6C299.27 231.2 297.97 231 296.503 231C293.703 231 291.303 231.6 289.303 232.8C287.37 233.933 285.87 235.667 284.803 238C283.736 240.333 283.203 243.333 283.203 247V310H291.203V248C291.203 245.8 291.403 244.033 291.803 242.7C292.203 241.367 292.736 240.433 293.403 239.9C294.136 239.3 295.003 239 296.003 239C296.803 239 297.636 239.167 298.503 239.5C299.436 239.767 300.236 240.467 300.903 241.6ZM307.316 264V271.5H330.316V264H307.316ZM329.516 241.6L333.916 235C333.45 234.333 332.783 233.7 331.916 233.1C331.116 232.5 330.15 232 329.016 231.6C327.883 231.2 326.583 231 325.116 231C322.316 231 319.916 231.6 317.916 232.8C315.983 233.933 314.483 235.667 313.416 238C312.35 240.333 311.816 243.333 311.816 247V310H319.816V248C319.816 245.8 320.016 244.033 320.416 242.7C320.816 241.367 321.35 240.433 322.016 239.9C322.75 239.3 323.616 239 324.616 239C325.416 239 326.25 239.167 327.116 239.5C328.05 239.767 328.85 240.467 329.516 241.6ZM357.23 311C362.163 311 366.43 310.033 370.03 308.1C373.696 306.1 376.73 303.167 379.13 299.3L372.63 295.2C370.963 298 368.93 300.1 366.53 301.5C364.13 302.833 361.363 303.5 358.23 303.5C355.096 303.5 352.43 302.833 350.23 301.5C348.03 300.167 346.363 298.233 345.23 295.7C344.096 293.167 343.53 290.1 343.53 286.5C343.596 282.967 344.196 280 345.33 277.6C346.53 275.133 348.196 273.267 350.33 272C352.53 270.667 355.163 270 358.23 270C360.83 270 363.096 270.567 365.03 271.7C366.963 272.833 368.463 274.4 369.53 276.4C370.663 278.4 371.23 280.767 371.23 283.5C371.23 283.967 371.13 284.567 370.93 285.3C370.73 285.967 370.53 286.467 370.33 286.8L373.53 282.2H340.53V289H379.83C379.83 288.867 379.83 288.567 379.83 288.1C379.896 287.567 379.93 287.067 379.93 286.6C379.93 281.733 379.063 277.533 377.33 274C375.596 270.467 373.096 267.767 369.83 265.9C366.63 263.967 362.763 263 358.23 263C353.696 263 349.696 264 346.23 266C342.83 268 340.163 270.8 338.23 274.4C336.363 278 335.43 282.2 335.43 287C335.43 291.733 336.33 295.9 338.13 299.5C339.996 303.1 342.563 305.933 345.83 308C349.163 310 352.963 311 357.23 311ZM398.895 264H390.895V310H398.895V264ZM412.795 272.8L417.195 266.2C415.995 264.933 414.661 264.1 413.195 263.7C411.795 263.233 410.261 263 408.595 263C406.461 263 404.361 263.833 402.295 265.5C400.228 267.167 398.528 269.433 397.195 272.3C395.928 275.1 395.295 278.333 395.295 282H398.895C398.895 279.8 399.095 277.833 399.495 276.1C399.961 274.367 400.761 273 401.895 272C403.028 271 404.595 270.5 406.595 270.5C407.928 270.5 409.028 270.7 409.895 271.1C410.761 271.433 411.728 272 412.795 272.8ZM441.507 311C446.44 311 450.707 310.033 454.307 308.1C457.974 306.1 461.007 303.167 463.407 299.3L456.907 295.2C455.24 298 453.207 300.1 450.807 301.5C448.407 302.833 445.64 303.5 442.507 303.5C439.374 303.5 436.707 302.833 434.507 301.5C432.307 300.167 430.64 298.233 429.507 295.7C428.374 293.167 427.807 290.1 427.807 286.5C427.874 282.967 428.474 280 429.607 277.6C430.807 275.133 432.474 273.267 434.607 272C436.807 270.667 439.44 270 442.507 270C445.107 270 447.374 270.567 449.307 271.7C451.24 272.833 452.74 274.4 453.807 276.4C454.94 278.4 455.507 280.767 455.507 283.5C455.507 283.967 455.407 284.567 455.207 285.3C455.007 285.967 454.807 286.467 454.607 286.8L457.807 282.2H424.807V289H464.107C464.107 288.867 464.107 288.567 464.107 288.1C464.174 287.567 464.207 287.067 464.207 286.6C464.207 281.733 463.34 277.533 461.607 274C459.874 270.467 457.374 267.767 454.107 265.9C450.907 263.967 447.04 263 442.507 263C437.974 263 433.974 264 430.507 266C427.107 268 424.44 270.8 422.507 274.4C420.64 278 419.707 282.2 419.707 287C419.707 291.733 420.607 295.9 422.407 299.5C424.274 303.1 426.84 305.933 430.107 308C433.44 310 437.24 311 441.507 311ZM504.672 282V310H512.672V281C512.672 275.467 511.239 271.1 508.372 267.9C505.572 264.633 501.739 263 496.872 263C493.872 263 491.205 263.667 488.872 265C486.605 266.333 484.705 268.4 483.172 271.2V264H475.172V310H483.172V282C483.172 279.733 483.639 277.733 484.572 276C485.572 274.267 486.939 272.933 488.672 272C490.472 271 492.539 270.5 494.872 270.5C498.072 270.5 500.505 271.467 502.172 273.4C503.839 275.333 504.672 278.2 504.672 282ZM531.311 287C531.311 283.8 531.978 280.967 533.311 278.5C534.711 275.967 536.578 274 538.911 272.6C541.311 271.2 544.011 270.5 547.011 270.5C549.478 270.5 551.778 270.9 553.911 271.7C556.111 272.433 558.011 273.433 559.611 274.7C561.211 275.967 562.344 277.367 563.011 278.9V268.9C561.411 267.033 559.111 265.6 556.111 264.6C553.178 263.533 550.144 263 547.011 263C542.544 263 538.511 264.033 534.911 266.1C531.311 268.167 528.444 271 526.311 274.6C524.244 278.2 523.211 282.333 523.211 287C523.211 291.6 524.244 295.733 526.311 299.4C528.444 303 531.311 305.833 534.911 307.9C538.511 309.967 542.544 311 547.011 311C550.144 311 553.178 310.5 556.111 309.5C559.111 308.433 561.411 306.967 563.011 305.1V295.1C562.344 296.567 561.211 297.967 559.611 299.3C558.011 300.567 556.111 301.6 553.911 302.4C551.778 303.133 549.478 303.5 547.011 303.5C544.011 303.5 541.311 302.8 538.911 301.4C536.578 299.933 534.711 297.967 533.311 295.5C531.978 293.033 531.311 290.2 531.311 287ZM593.265 311C598.198 311 602.465 310.033 606.065 308.1C609.732 306.1 612.765 303.167 615.165 299.3L608.665 295.2C606.998 298 604.965 300.1 602.565 301.5C600.165 302.833 597.398 303.5 594.265 303.5C591.132 303.5 588.465 302.833 586.265 301.5C584.065 300.167 582.398 298.233 581.265 295.7C580.132 293.167 579.565 290.1 579.565 286.5C579.632 282.967 580.232 280 581.365 277.6C582.565 275.133 584.232 273.267 586.365 272C588.565 270.667 591.198 270 594.265 270C596.865 270 599.132 270.567 601.065 271.7C602.998 272.833 604.498 274.4 605.565 276.4C606.698 278.4 607.265 280.767 607.265 283.5C607.265 283.967 607.165 284.567 606.965 285.3C606.765 285.967 606.565 286.467 606.365 286.8L609.565 282.2H576.565V289H615.865C615.865 288.867 615.865 288.567 615.865 288.1C615.932 287.567 615.965 287.067 615.965 286.6C615.965 281.733 615.098 277.533 613.365 274C611.632 270.467 609.132 267.767 605.865 265.9C602.665 263.967 598.798 263 594.265 263C589.732 263 585.732 264 582.265 266C578.865 268 576.198 270.8 574.265 274.4C572.398 278 571.465 282.2 571.465 287C571.465 291.733 572.365 295.9 574.165 299.5C576.032 303.1 578.598 305.933 581.865 308C585.198 310 588.998 311 593.265 311Z" fill="#6383F3"/>
<path d="M637 65C637 71.1631 634.187 77.1104 628.946 82.6043C623.701 88.1033 616.063 93.101 606.548 97.3199C587.521 105.756 561.165 111 532 111C502.835 111 476.479 105.756 457.452 97.3199C447.937 93.101 440.299 88.1033 435.054 82.6043C429.813 77.1104 427 71.1631 427 65C427 58.8369 429.813 52.8896 435.054 47.3957C440.299 41.8967 447.937 36.899 457.452 32.6801C476.479 24.2436 502.835 19 532 19C561.165 19 587.521 24.2436 606.548 32.6801C616.063 36.899 623.701 41.8967 628.946 47.3957C634.187 52.8896 637 58.8369 637 65Z" stroke="#F6D493" stroke-width="2"/>
</svg>
