<svg width="193" height="119" viewBox="0 0 193 119" fill="none" xmlns="http://www.w3.org/2000/svg">
<path d="M7.85004 74.1463C7.75255 73.9837 7.67594 73.7481 7.62022 73.4395C7.5829 73.099 7.54559 72.7585 7.50828 72.418C7.49612 72.0708 7.49407 71.7613 7.50213 71.4896C7.5102 71.2178 7.51086 71.0693 7.50412 71.0442L10.0867 46.5732C10.1414 46.0732 10.2611 45.8659 10.4458 45.9512C10.6236 46.0114 10.8009 46.2201 10.9774 46.5772C11.1724 46.9024 11.3339 47.3039 11.462 47.7819C11.5833 48.2346 11.6307 48.6128 11.6043 48.9165C11.3116 51.0439 11.0097 53.1873 10.6986 55.3466C10.4059 57.474 10.1451 59.6198 9.91617 61.7841C9.70568 63.9164 9.53966 66.0638 9.41812 68.2262C9.28983 70.3635 9.27227 72.5116 9.36544 74.6704C9.19791 74.8501 9.03531 74.9476 8.87764 74.9628C8.74513 74.9714 8.60251 74.9422 8.44978 74.8753C8.31546 74.7765 8.19035 74.6617 8.07444 74.531C7.9837 74.3936 7.90889 74.2653 7.85004 74.1463ZM30.6837 68.9582C30.3858 68.1483 30.2297 67.3139 30.2152 66.4551C30.2192 65.5643 30.2928 64.6819 30.436 63.8077C30.5976 62.9017 30.7752 62.0048 30.9687 61.1172C31.1807 60.1977 31.3365 59.3202 31.4361 58.4847C31.529 57.624 31.5406 56.8121 31.471 56.0489C31.3945 55.2606 31.1454 54.532 30.7235 53.8632C30.034 53.8053 29.318 54.0511 28.5755 54.6005C27.8582 55.1432 27.1378 55.8754 26.4142 56.7973C25.6839 57.6939 24.9496 58.7264 24.2112 59.8949C23.4912 61.0314 22.7906 62.1897 22.1092 63.3698C21.4463 64.518 20.811 65.6183 20.2034 66.6709C19.5957 67.7234 19.0264 68.6173 18.4955 69.3527C17.9831 70.0562 17.5207 70.544 17.1083 70.8163C16.6892 71.0634 16.3436 70.9808 16.0713 70.5684C16.0394 70.55 16.0935 70.1985 16.2336 69.5139C16.3921 68.7974 16.5731 67.9132 16.7765 66.8612C17.005 65.8024 17.2511 64.658 17.5147 63.4281C17.8034 62.1915 18.0746 61.0404 18.3283 59.9749C18.5753 58.8842 18.7998 57.9613 19.0019 57.2062C19.2039 56.4511 19.3485 56.0349 19.4357 55.9576C20.0583 56.1683 20.4269 56.4874 20.5415 56.915C20.6744 57.3107 20.7261 57.7552 20.6965 58.2484C20.6602 58.7165 20.6021 59.2039 20.5222 59.7106C20.4674 60.2105 20.5636 60.67 20.8107 61.0891C21.139 60.7046 21.5913 60.179 22.1675 59.5123C22.7622 58.8138 23.4038 58.0892 24.0924 57.3385C24.8061 56.5811 25.5483 55.8295 26.3191 55.0838C27.115 54.3313 27.8783 53.7089 28.6091 53.2165C29.3332 52.699 30.0063 52.3434 30.6284 52.1497C31.2757 51.9494 31.8041 52.0099 32.2138 52.3315C32.6235 52.6531 32.8902 53.2961 33.0138 54.2605C33.1558 55.193 33.0996 56.5427 32.845 58.3094C32.8167 58.5057 32.7427 58.9838 32.6228 59.7439C32.5213 60.472 32.399 61.2732 32.2558 62.1473C32.131 62.9896 32.0086 63.7907 31.8888 64.5508C31.7873 65.2789 31.7224 65.7412 31.6942 65.9375C31.696 66.0448 31.7088 66.2436 31.7326 66.5338C31.7749 66.792 31.8146 67.0914 31.852 67.4319C31.8825 67.7472 31.8879 68.0693 31.8682 68.3981C31.8417 68.7018 31.7732 68.9493 31.6628 69.1407C31.5523 69.332 31.3728 69.3666 31.1244 69.2445C30.8693 69.0972 30.7224 69.0017 30.6837 68.9582ZM59.0955 61.3452C58.6189 61.1764 58.3442 60.8051 58.2714 60.2315C58.1986 59.6579 58.223 59.0448 58.3447 58.3921C58.4461 57.6639 58.6565 56.8392 58.9758 55.9179C59.3696 54.1678 59.7192 52.6048 60.0245 51.2288C60.3482 49.821 60.6419 48.5022 60.9055 47.2723C61.169 46.0423 61.4176 44.8569 61.6511 43.7159C61.8845 42.575 62.1045 41.3837 62.3111 40.1421C62.5427 38.8937 62.7668 37.5666 62.9832 36.1606C63.1996 34.7546 63.4317 33.1557 63.6795 31.3638C63.7028 31.2497 63.7412 31.0911 63.7946 30.8881C63.8665 30.6532 63.9644 30.4652 64.0884 30.3241C64.2307 30.1511 64.3967 30.0662 64.5863 30.0694C64.7691 30.0473 64.9923 30.1762 65.2561 30.4561C65.6424 30.8918 65.8403 31.5801 65.8498 32.5212C65.8845 33.4555 65.7927 34.572 65.5745 35.8706C65.3496 37.1441 65.051 38.5452 64.6788 40.0738C64.2998 41.5773 63.8898 43.1161 63.4488 44.6901C63.0078 46.2641 62.5761 47.8222 62.1535 49.3643C61.731 50.9064 61.3728 52.3369 61.0792 53.6558C60.8107 54.9679 60.641 56.1457 60.5701 57.1892C60.5176 58.2008 60.6158 58.9698 60.8647 59.4962C62.6979 59.1937 64.493 58.6992 66.2502 58.0127C68.0074 57.3262 69.7545 56.6019 71.4915 55.84C73.2217 55.0528 74.962 54.3034 76.7125 53.5917C78.4881 52.8733 80.2983 52.3344 82.1431 51.9749C82.4566 51.8369 82.7637 51.876 83.0642 52.092C83.3647 52.3081 83.4582 52.6065 83.3446 52.9875C83.2943 53.0009 83.1811 53.0313 83.005 53.0785C82.8473 53.0937 82.6805 53.125 82.5044 53.1722C82.3283 53.2193 82.1556 53.2791 81.9862 53.3514C81.8353 53.3919 81.7221 53.4222 81.6467 53.4424C80.2717 53.9456 78.6848 54.6135 76.8858 55.446C75.0801 56.2534 73.2082 57.065 71.27 57.8809C69.3318 58.6968 67.3767 59.4498 65.4048 60.14C63.4581 60.8233 61.6562 61.2927 59.9991 61.548C59.9739 61.5547 59.8347 61.5381 59.5813 61.4981C59.3464 61.4263 59.1845 61.3753 59.0955 61.3452ZM87.4319 53.7525C86.2608 53.608 85.4223 53.1452 84.9165 52.3641C84.4358 51.5762 84.1956 50.6296 84.196 49.5241C84.1896 48.3935 84.3777 47.1838 84.7603 45.895C85.1361 44.5811 85.6144 43.3475 86.1951 42.1944C86.7759 41.0413 87.397 40.0391 88.0586 39.1878C88.7386 38.3046 89.3703 37.7444 89.9538 37.5072C91.4595 36.8881 92.7098 36.6744 93.7048 36.8661C94.7182 37.0259 95.4928 37.4519 96.0288 38.1441C96.5647 38.8362 96.8988 39.7308 97.0309 40.8277C97.1564 41.8995 97.0965 43.0344 96.8513 44.2324C96.6313 45.4237 96.2377 46.621 95.6705 47.8245C95.1284 49.0212 94.4453 50.0939 93.6211 51.0427C92.8153 51.9596 91.8894 52.6795 90.8432 53.2024C89.7904 53.7002 88.6532 53.8836 87.4319 53.7525ZM86.4405 51.7131C86.8575 52.4641 87.4064 52.8023 88.0874 52.7276C88.7616 52.6279 89.4724 52.2622 90.2198 51.6305C90.9857 50.967 91.742 50.1173 92.4889 49.0814C93.2291 48.0203 93.8644 46.92 94.3948 45.7803C94.9504 44.6339 95.355 43.528 95.6087 42.4625C95.8808 41.365 95.9099 40.4676 95.6961 39.77C95.5073 39.0657 95.0262 38.6284 94.2527 38.4582C93.4976 38.2561 92.3706 38.4772 90.8717 39.1215C90.6071 39.5429 90.2622 40.0667 89.8369 40.6929C89.4048 41.294 88.961 41.9521 88.5056 42.6672C88.0753 43.3756 87.6586 44.1344 87.2553 44.9434C86.8452 45.7273 86.5174 46.5161 86.2717 47.3098C86.0261 48.1036 85.897 48.8796 85.8845 49.6378C85.8971 50.3893 86.0825 51.0811 86.4405 51.7131ZM102.705 49.1748C102.096 49.0145 101.59 48.6377 101.189 48.0443C100.787 47.451 100.463 46.7426 100.215 45.9193C99.9675 45.0959 99.7852 44.2146 99.6684 43.2754C99.5515 42.3361 99.4665 41.4153 99.4134 40.5128C99.3604 39.6104 99.3309 38.796 99.325 38.0697C99.3191 37.3433 99.3033 36.7814 99.2777 36.3839C99.3832 36.2747 99.509 36.241 99.655 36.2828C99.8261 36.3178 99.9948 36.3939 100.161 36.5111C100.346 36.5965 100.493 36.6919 100.602 36.7975C100.729 36.8711 100.793 36.9079 100.793 36.9079C101.104 37.7681 101.337 38.6359 101.491 39.5114C101.663 40.355 101.81 41.2053 101.932 42.0623C102.078 42.9127 102.229 43.7756 102.383 44.651C102.561 45.5197 102.794 46.3876 103.08 47.2545C103.382 47.5779 103.801 47.4793 104.335 46.9586C104.863 46.4128 105.472 45.6161 106.162 44.5685C106.845 43.4958 107.566 42.2645 108.326 40.8746C109.105 39.4528 109.861 38.0504 110.596 36.6672C111.356 35.2774 112.073 33.9798 112.748 32.7745C113.416 31.5441 113.997 30.5932 114.491 29.9216C115.003 29.2181 115.399 28.8829 115.677 28.9162C115.949 28.9242 116.053 29.4626 115.989 30.5312C115.526 31.2212 115.022 32.2057 114.475 33.4846C113.928 34.7635 113.329 36.1506 112.678 37.6461C112.021 39.1163 111.325 40.5967 110.592 42.0872C109.86 43.5777 109.07 44.9081 108.224 46.0783C107.397 47.2166 106.528 48.0967 105.616 48.7184C104.697 49.315 103.727 49.4672 102.705 49.1748ZM123.918 43.9761C123.096 43.9267 122.417 43.7044 121.879 43.3092C121.36 42.882 120.954 42.3709 120.66 41.7757C120.365 41.1806 120.165 40.5333 120.058 39.8339C119.97 39.1026 119.943 38.3956 119.975 37.7128C120.514 36.7057 121.111 35.5618 121.765 34.281C122.438 32.9684 123.168 31.6675 123.955 30.3783C124.742 29.089 125.586 27.8651 126.489 26.7065C127.41 25.5161 128.402 24.5361 129.462 23.7665C129.818 23.4826 130.136 23.4109 130.416 23.5515C130.715 23.6602 130.968 23.9023 131.177 24.2778C131.385 24.6533 131.548 25.1085 131.664 25.6435C131.805 26.1718 131.906 26.6975 131.965 27.2209C132.025 27.7442 132.045 28.2239 132.027 28.6601C132.009 29.0962 131.958 29.4066 131.872 29.5913C131.665 30.0243 131.185 30.5977 130.433 31.3116C129.706 32.0187 128.891 32.803 127.99 33.6647C127.082 34.5011 126.18 35.3628 125.285 36.2496C124.391 37.1363 123.685 37.9726 123.167 38.7583C122.643 39.5188 122.396 40.2052 122.425 40.8174C122.454 41.4297 122.948 41.8636 123.906 42.1191C124.788 41.9905 125.809 41.6765 126.97 41.1769C128.148 40.6454 129.326 40.0602 130.503 39.4213C131.698 38.7506 132.843 38.0933 133.938 37.4495C135.025 36.7806 135.92 36.2444 136.621 35.8409L137.184 36.1347C136.827 37.0124 136.1 37.9217 135.004 38.8624C133.908 39.8031 132.684 40.6701 131.333 41.4635C129.975 42.2318 128.621 42.8641 127.272 43.3606C125.915 43.8319 124.797 44.0371 123.918 43.9761ZM129.074 27.1463C129.042 27.1279 128.884 27.2916 128.599 27.6375C128.307 27.9583 127.952 28.3907 127.531 28.9347C127.129 29.4468 126.69 30.0227 126.215 30.6624C125.757 31.2702 125.331 31.8427 124.936 32.38C124.566 32.9105 124.258 33.3705 124.012 33.76C123.759 34.1243 123.658 34.2997 123.708 34.2863C124.131 34.2539 124.633 34.0654 125.214 33.7208C125.814 33.3444 126.407 32.889 126.992 32.3549C127.602 31.814 128.164 31.2455 128.678 30.6494C129.186 30.0281 129.558 29.4565 129.796 28.9345C130.058 28.4058 130.146 27.9779 130.058 27.6509C129.996 27.3171 129.668 27.149 129.074 27.1463ZM155.778 24.4798C155.364 24.2405 155.292 23.9227 155.563 23.5264C155.86 23.1235 156.364 22.6918 157.076 22.2313C157.814 21.7641 158.712 21.2941 159.772 20.8215C160.832 20.3488 161.939 19.9038 163.094 19.4864C164.25 19.069 165.384 18.7246 166.498 18.4532C167.63 18.1499 168.631 17.9625 169.501 17.891C170.397 17.8128 171.087 17.8707 171.57 18.0647C172.078 18.2519 172.284 18.6149 172.185 19.1535C171.908 19.2276 171.45 19.3774 170.809 19.603C170.187 19.7966 169.518 20.0164 168.802 20.2621C168.086 20.5079 167.408 20.7436 166.767 20.9691C166.12 21.1695 165.674 21.316 165.429 21.4085C164.814 21.6274 164.087 21.9839 163.249 22.478C162.404 22.9471 161.527 23.3977 160.619 23.8299C159.728 24.2302 158.852 24.5324 157.99 24.7364C157.128 24.9404 156.391 24.8549 155.778 24.4798ZM49.9199 109.356C49.3157 109.113 48.7944 108.727 48.3559 108.198C47.9175 107.668 47.5318 107.084 47.1989 106.445C46.8911 105.8 46.6211 105.144 46.3888 104.479C46.1565 103.813 45.9696 103.216 45.8281 102.688C45.7643 102.651 45.6821 102.646 45.5815 102.673C45.506 102.693 45.4499 102.735 45.413 102.799C44.9055 103.42 44.4467 104.123 44.0367 104.907C43.6266 105.691 43.2199 106.487 42.8166 107.296C42.4385 108.098 42.0603 108.901 41.6822 109.703C41.3224 110.473 40.9366 111.197 40.5248 111.873C40.2063 112.094 39.8517 112.229 39.4609 112.28C39.0634 112.305 38.7026 112.267 38.3788 112.165C38.0733 112.032 37.8172 111.831 37.6106 111.562C37.4224 111.262 37.359 110.875 37.4205 110.4C37.4873 108.738 37.5682 106.977 37.6633 105.118C37.7768 103.228 37.939 101.418 38.15 99.6901C38.2281 99.076 38.3862 98.7102 38.6242 98.5925C38.8874 98.468 39.1534 98.5046 39.422 98.7022C39.6906 98.8998 39.9233 99.2149 40.1201 99.6475C40.3102 100.055 40.387 100.493 40.3507 100.961C40.3291 101.182 40.2885 101.584 40.2288 102.166C40.1624 102.723 40.0969 103.334 40.0322 103.998C39.9609 104.637 39.8953 105.248 39.8356 105.83C39.7759 106.412 39.7353 106.814 39.7138 107.036L40.0575 108.319C40.6486 107.405 41.1341 106.601 41.5141 105.906C41.894 105.211 42.2362 104.526 42.5407 103.852C42.8637 103.145 43.1924 102.41 43.527 101.646C43.8548 100.858 44.2781 99.9218 44.7968 98.8392C45.1934 98.005 45.5485 97.519 45.862 97.381C46.1688 97.2179 46.4448 97.2923 46.6901 97.604C46.9538 97.8838 47.1858 98.3474 47.3862 98.9946C47.5799 99.6167 47.7652 100.308 47.9423 101.07C48.1378 101.799 48.3114 102.548 48.4633 103.316C48.6085 104.059 48.7552 104.707 48.9035 105.261C49.0702 105.782 49.2375 106.155 49.4056 106.38C49.5668 106.579 49.7487 106.504 49.9513 106.153C50.1251 105.594 50.3799 104.784 50.7158 103.724C51.0518 102.663 51.4395 101.494 51.8792 100.217C52.3121 98.9149 52.8079 97.5958 53.3666 96.2599C53.9437 94.892 54.5671 93.6466 55.2367 92.5235C55.8996 91.3753 56.6165 90.4284 57.3872 89.6826C58.1512 88.9118 58.9651 88.478 59.8289 88.3813C59.881 88.4752 59.8042 88.7924 59.5986 89.3328C59.418 89.8664 59.1479 90.5184 58.7882 91.2888C58.4468 92.0273 58.0595 92.8456 57.6261 93.7436C57.2111 94.6096 56.7894 95.4506 56.3609 96.2664C55.9576 97.0754 55.6003 97.8047 55.2891 98.4542C54.9779 99.1038 54.7679 99.578 54.6592 99.8767C54.6107 99.9975 54.5079 100.268 54.3507 100.687C54.2119 101.075 54.0431 101.552 53.8441 102.117C53.6636 102.651 53.4554 103.232 53.2197 103.862C53.0091 104.484 52.8043 105.078 52.6053 105.644C52.4064 106.209 52.2283 106.702 52.0711 107.122C51.9391 107.534 51.8488 107.801 51.8003 107.922C51.6616 108.31 51.5437 108.624 51.4467 108.866C51.3497 109.108 51.2358 109.286 51.1051 109.402C50.9996 109.512 50.852 109.565 50.6624 109.561C50.4729 109.558 50.2254 109.49 49.9199 109.356ZM68.6725 104.331C67.8504 104.282 67.1708 104.06 66.6335 103.664C66.1146 103.237 65.7081 102.726 65.4138 102.131C65.1195 101.536 64.9191 100.889 64.8126 100.189C64.7245 99.4578 64.6968 98.7508 64.7296 98.068C65.2685 97.0609 65.8652 95.917 66.5195 94.6363C67.1923 93.3236 67.9221 92.0227 68.709 90.7335C69.4959 89.4442 70.3407 88.2203 71.2435 87.0618C72.1647 85.8713 73.1558 84.8913 74.2167 84.1217C74.572 83.8378 74.8898 83.7661 75.1701 83.9067C75.4688 84.0154 75.7224 84.2575 75.9309 84.633C76.1393 85.0085 76.3018 85.4638 76.4181 85.9987C76.5597 86.527 76.6601 87.0528 76.7195 87.5761C76.7788 88.0994 76.7995 88.5791 76.7816 89.0153C76.7636 89.4514 76.712 89.7618 76.6267 89.9465C76.4192 90.3795 75.9393 90.9529 75.1869 91.6668C74.4598 92.3739 73.6454 93.1582 72.744 94.0199C71.8358 94.8563 70.9343 95.718 70.0396 96.6048C69.1449 97.4916 68.4388 98.3278 67.9214 99.1135C67.3973 99.874 67.1498 100.56 67.1791 101.173C67.2083 101.785 67.702 102.219 68.6602 102.474C69.5424 102.346 70.5636 102.032 71.7238 101.532C72.9025 101.001 74.0802 100.415 75.257 99.7765C76.4523 99.1058 77.5972 98.4485 78.6919 97.8047C79.7797 97.1358 80.674 96.5996 81.3748 96.1962L81.9387 96.4899C81.5808 97.3676 80.8539 98.2769 79.7579 99.2176C78.662 100.158 77.4384 101.025 76.0873 101.819C74.7295 102.587 73.3757 103.219 72.0259 103.716C70.6693 104.187 69.5515 104.392 68.6725 104.331ZM73.8282 87.5015C73.7963 87.4831 73.638 87.6468 73.3532 87.9927C73.0617 88.3135 72.7058 88.7459 72.2854 89.2899C71.8834 89.802 71.4446 90.3779 70.9689 91.0176C70.5117 91.6254 70.0855 92.1979 69.6902 92.7352C69.3201 93.2657 69.012 93.7257 68.7659 94.1152C68.513 94.4795 68.4118 94.655 68.4621 94.6415C68.8848 94.6091 69.3869 94.4206 69.9686 94.076C70.5687 93.6996 71.1612 93.2442 71.746 92.7101C72.3559 92.1692 72.918 91.6007 73.4323 91.0046C73.9399 90.3833 74.3124 89.8117 74.55 89.2897C74.8127 88.761 74.9003 88.3331 74.8127 88.0061C74.7502 87.6724 74.422 87.5042 73.8282 87.5015ZM105.612 94.4335C105.573 94.3899 105.523 94.2549 105.463 94.0285C105.402 93.8021 105.374 93.6478 105.379 93.5656C105.38 93.2687 105.391 92.7537 105.41 92.0206C105.422 91.2624 105.441 90.4756 105.465 89.6603C105.482 88.8199 105.501 88.0331 105.52 87.3C105.539 86.5669 105.55 86.0519 105.551 85.755C105.557 85.3759 105.562 84.9431 105.567 84.4566C105.565 83.945 105.468 83.4855 105.278 83.0781C104.888 83.1289 104.436 83.3039 103.923 83.6031C103.403 83.8771 102.88 84.1386 102.354 84.3875C101.846 84.6045 101.342 84.7393 100.844 84.7919C100.365 84.8126 99.9567 84.5984 99.6207 84.1492C99.754 83.4395 100.099 82.9157 100.655 82.5778C101.205 82.2148 101.822 81.9012 102.506 81.6371C103.19 81.3729 103.827 81.0811 104.415 80.7616C105.029 80.4355 105.453 79.9577 105.689 79.3284C105.74 78.6137 105.792 77.7506 105.845 76.739C105.915 75.6955 105.989 74.6109 106.065 73.4852C106.14 72.3595 106.245 71.2397 106.378 70.1257C106.536 69.0049 106.737 67.994 106.98 67.0929C107.21 66.8427 107.433 66.7694 107.649 66.8732C107.866 66.9769 108.052 67.1696 108.209 67.4512C108.384 67.701 108.524 67.9734 108.63 68.2685C108.736 68.5636 108.79 68.7649 108.792 68.8722C108.816 69.5667 108.741 70.3418 108.566 71.1975C108.409 72.0213 108.268 72.8544 108.143 73.6966C108.044 74.5321 107.994 75.3542 107.995 76.1627C108.021 76.9645 108.213 77.6814 108.572 78.3134L116.684 76.1397C116.709 76.133 116.795 76.2042 116.943 76.3533C117.084 76.4773 117.206 76.5794 117.308 76.6598C117.529 76.9783 117.454 77.2543 117.085 77.4879C116.717 77.7216 116.199 77.9545 115.534 78.1868C114.861 78.3939 114.088 78.628 113.215 78.8891C112.359 79.1183 111.546 79.4036 110.775 79.745C110.022 80.0546 109.368 80.432 108.814 80.8772C108.252 81.2972 107.929 81.8017 107.844 82.3906C107.642 84.2512 107.493 86.1108 107.398 87.9696C107.296 89.8032 107.226 91.6553 107.188 93.5257C107.158 93.6147 107.091 93.7674 106.987 93.9839C106.877 94.1753 106.75 94.3574 106.608 94.5304C106.459 94.6782 106.293 94.7631 106.11 94.7851C105.953 94.8004 105.786 94.6832 105.612 94.4335ZM119.497 90.7129C119.44 90.7013 119.362 90.412 119.264 89.8451C119.185 89.2463 119.093 88.5025 118.99 87.6135C118.886 86.7246 118.797 85.7375 118.722 84.6522C118.647 83.567 118.598 82.5287 118.575 81.5373C118.545 80.5208 118.562 79.6267 118.625 78.8549C118.706 78.0513 118.835 77.4775 119.012 77.1334C119.141 76.9101 119.317 76.8629 119.541 76.9918C119.757 77.0956 119.987 77.2496 120.231 77.454C120.467 77.6332 120.701 77.7998 120.931 77.9539C121.154 78.0828 121.346 78.0448 121.507 77.84C121.948 76.6702 122.466 75.5339 123.06 74.4311C123.673 73.2964 124.407 72.2639 125.263 71.3335C125.344 71.2311 125.59 71.0437 126.003 70.7715C126.408 70.4741 126.88 70.1724 127.418 69.8665C127.949 69.5354 128.504 69.2386 129.08 68.9763C129.675 68.682 130.19 68.4901 130.625 68.4007C131.077 68.2794 131.409 68.3117 131.621 68.4976C131.851 68.6517 131.87 69.0241 131.678 69.6148C130.175 70.0443 128.885 70.862 127.806 72.0677C126.727 73.2734 125.803 74.6535 125.033 76.2077C124.263 77.762 123.624 79.4025 123.116 81.1293C122.602 82.8309 122.173 84.4015 121.831 85.8412C121.514 87.2742 121.24 88.4664 121.01 89.4178C120.805 90.3624 120.602 90.8617 120.4 90.9157C120.375 90.9224 120.248 90.9024 120.02 90.8557C119.785 90.7839 119.611 90.7363 119.497 90.7129ZM152.965 81.7453C152.211 81.6505 151.573 81.4307 151.049 81.0858C150.525 80.7408 150.073 80.3094 149.691 79.7915C149.31 79.2736 148.972 78.7171 148.678 78.122C148.377 77.5017 148.088 76.878 147.812 76.2509C147.545 76.1607 147.183 76.4194 146.726 77.0272C146.262 77.6099 145.741 78.3293 145.161 79.1855C144.582 80.0417 143.946 80.9399 143.255 81.8802C142.581 82.7885 141.886 83.514 141.169 84.0567C140.451 84.5994 139.726 84.8611 138.993 84.8419C138.285 84.8159 137.594 84.3 136.92 83.2943C136.694 82.9507 136.586 82.3998 136.599 81.6415C136.63 80.8514 136.744 79.9714 136.943 79.0016C137.141 78.0318 137.396 77.0199 137.707 75.9661C138.036 74.8804 138.36 73.8768 138.679 72.9555C139.017 72.0023 139.338 71.1883 139.643 70.5136C139.966 69.807 140.229 69.332 140.434 69.0885C141.086 69.2101 141.452 69.5704 141.532 70.1691C141.63 70.736 141.575 71.4381 141.368 72.2754C141.187 73.106 140.892 74.0206 140.486 75.0192C140.105 76.011 139.749 76.9962 139.418 77.9745C139.105 78.921 138.886 79.8154 138.762 80.6576C138.637 81.4999 138.727 82.1901 139.033 82.7282C139.647 82.8063 140.296 82.5111 140.98 81.8426C141.682 81.1423 142.387 80.2524 143.095 79.1729C143.829 78.0867 144.544 76.8839 145.242 75.5645C145.959 74.2133 146.613 72.9326 147.205 71.7224C147.791 70.4871 148.31 69.4045 148.762 68.4746C149.213 67.5447 149.557 66.9136 149.791 66.5812C150.387 66.6912 150.762 67.0354 150.917 67.614C151.065 68.1674 151.086 68.8493 150.98 69.6596C150.899 70.4632 150.759 71.35 150.56 72.3198C150.38 73.2577 150.251 74.1822 150.171 75.0931C150.092 76.0041 150.128 76.8437 150.28 77.6118C150.432 78.3799 150.808 78.98 151.409 79.412L153.097 80.5776L156.907 79.5564C157.083 79.5093 157.141 79.5746 157.081 79.7525C157.021 79.9304 156.914 80.1343 156.76 80.3643C156.631 80.5876 156.49 80.8142 156.335 81.0442C156.175 81.2491 156.082 81.3549 156.057 81.3616C155.436 81.6626 154.911 81.8167 154.482 81.824C154.059 81.8563 153.553 81.8301 152.965 81.7453ZM159.568 79.976C159.212 79.8556 159.128 79.5949 159.318 79.1937C159.525 78.7607 159.893 78.2713 160.42 77.7254C160.967 77.1477 161.61 76.5305 162.351 75.8737C163.091 75.2169 163.801 74.5954 164.48 74.0091C165.184 73.4161 165.8 72.9004 166.33 72.4619C166.853 71.9983 167.182 71.6675 167.317 71.4694C167.959 70.5426 168.231 69.8495 168.135 69.39C168.058 68.8986 167.755 68.5752 167.228 68.4198C166.695 68.2393 165.993 68.1847 165.122 68.2562C164.27 68.2958 163.387 68.3707 162.473 68.4808C161.577 68.5591 160.706 68.6306 159.861 68.6953C159.041 68.7533 158.396 68.7105 157.926 68.5668C157.456 68.4231 157.23 68.1332 157.248 67.697C157.284 67.2289 157.693 66.5398 158.473 65.6297C158.758 65.2838 159.176 64.7809 159.727 64.121C160.278 63.4611 160.876 62.7751 161.521 62.0631C162.192 61.3443 162.863 60.6792 163.535 60.0678C164.206 59.4564 164.79 59.017 165.284 58.7497C165.547 58.6252 165.831 58.5763 166.135 58.6027C166.463 58.6225 166.743 58.7094 166.973 58.8634C167.196 58.9923 167.325 59.1733 167.361 59.4065C167.422 59.6329 167.312 59.8779 167.032 60.1416C165.814 61.3307 164.633 62.4561 163.488 63.5176C162.369 64.5724 161.264 65.7312 160.174 66.994C160.152 67.2154 160.212 67.3881 160.353 67.5121C160.519 67.6293 160.688 67.7055 160.859 67.7405C163.599 67.3027 165.704 67.1568 167.172 67.3026C168.665 67.4418 169.668 67.766 170.182 68.2753C170.721 68.7779 170.855 69.4295 170.585 70.23C170.314 71.0305 169.813 71.879 169.083 72.7757C168.378 73.6656 167.524 74.5549 166.522 75.4435C165.52 76.3321 164.532 77.1225 163.558 77.8148C162.61 78.5003 161.76 79.0516 161.009 79.4685C160.258 79.8854 159.777 80.0546 159.568 79.976ZM176.849 75.3455C176.81 75.302 176.76 75.167 176.7 74.9406C176.639 74.7142 176.611 74.5599 176.616 74.4777C176.617 74.1808 176.628 73.6658 176.647 72.9327C176.659 72.1745 176.678 71.3877 176.702 70.5724C176.719 69.732 176.738 68.9452 176.757 68.2121C176.776 67.479 176.787 66.964 176.788 66.6671C176.794 66.288 176.799 65.8552 176.804 65.3687C176.802 64.8571 176.705 64.3976 176.515 63.9902C176.125 64.041 175.673 64.216 175.16 64.5152C174.64 64.7892 174.117 65.0507 173.591 65.2996C173.083 65.5166 172.58 65.6514 172.081 65.704C171.602 65.7247 171.194 65.5105 170.858 65.0613C170.991 64.3516 171.336 63.8278 171.893 63.4899C172.442 63.1269 173.059 62.8133 173.743 62.5492C174.427 62.285 175.064 61.9932 175.652 61.6737C176.266 61.3476 176.69 60.8698 176.926 60.2405C176.977 59.5258 177.029 58.6627 177.082 57.6511C177.152 56.6076 177.226 55.523 177.302 54.3973C177.377 53.2716 177.482 52.1518 177.615 51.0378C177.773 49.917 177.974 48.9061 178.217 48.005C178.447 47.7548 178.67 47.6815 178.886 47.7853C179.103 47.889 179.289 48.0817 179.446 48.3633C179.621 48.6131 179.761 48.8855 179.867 49.1806C179.973 49.4757 180.027 49.6769 180.029 49.7843C180.053 50.4788 179.978 51.2538 179.803 52.1096C179.646 52.9334 179.505 53.7665 179.38 54.6087C179.281 55.4442 179.231 56.2663 179.232 57.0748C179.258 57.8766 179.45 58.5935 179.809 59.2255L187.921 57.0518C187.946 57.0451 188.032 57.1163 188.18 57.2654C188.321 57.3894 188.443 57.4915 188.545 57.5719C188.766 57.8904 188.691 58.1664 188.322 58.4C187.954 58.6337 187.436 58.8666 186.771 59.0989C186.098 59.306 185.325 59.5401 184.452 59.8012C183.596 60.0304 182.783 60.3157 182.012 60.6571C181.259 60.9667 180.605 61.3441 180.051 61.7893C179.489 62.2093 179.166 62.7138 179.081 63.3027C178.879 65.1633 178.73 67.0229 178.635 68.8817C178.533 70.7153 178.463 72.5674 178.425 74.4378C178.395 74.5268 178.328 74.6795 178.224 74.896C178.114 75.0874 177.988 75.2695 177.845 75.4425C177.696 75.5903 177.53 75.6752 177.347 75.6972C177.19 75.7125 177.023 75.5953 176.849 75.3455Z" fill="#EF8BAF"/>
</svg>
